HIERARCHY
ROOT root
{
	OFFSET	0	13.1	24.9
	CHANNELS 6  Xposition Yposition Zposition Xrotation Yrotation Zrotation
	JOINT spine_1
	{
		OFFSET	0	9.99999	0
		CHANNELS 3  Xrotation Yrotation Zrotation
		JOINT spine_2
		{
			OFFSET	0	112	-10
			CHANNELS 3  Xrotation Yrotation Zrotation
			JOINT spine_3
			{
				OFFSET	0	206.5	19.3
				CHANNELS 3  Xrotation Yrotation Zrotation
				JOINT spine_4
				{
					OFFSET	0	110.4	14.6
					CHANNELS 3  Xrotation Yrotation Zrotation
					JOINT neck_1
					{
						OFFSET	0	71.8	-50.3
						CHANNELS 3  Xrotation Yrotation Zrotation
						JOINT neck_2
						{
							OFFSET	0	86.2	-25.8
							CHANNELS 3  Xrotation Yrotation Zrotation
							JOINT head_ee
							{
								OFFSET	0	179.8	-8.7
								CHANNELS 3  Xrotation Yrotation Zrotation
								End Site
								{
									OFFSET	1	0	0
								}
							}
						}
					}
					JOINT left_clavicle
					{
						OFFSET	-43.2	22.4	-70.8
						CHANNELS 3  Xrotation Yrotation Zrotation
						JOINT left_shoulder
						{
							OFFSET	-93.9	-5.79999	48.7
							CHANNELS 3  Xrotation Yrotation Zrotation
							JOINT left_elbow
							{
								OFFSET	-291.4	-30.8	15.2
								CHANNELS 3  Xrotation Yrotation Zrotation
								JOINT left_lowarm_twist
								{
									OFFSET	-110.7	-3.89999	13.6
									CHANNELS 3  Xrotation Yrotation Zrotation
									JOINT left_hand
									{
										OFFSET	-110.7	-3.89999	13.6
										CHANNELS 3  Xrotation Yrotation Zrotation
										JOINT left_ee
										{
											OFFSET	-80.8	-5.10001	12.1
											CHANNELS 3  Xrotation Yrotation Zrotation
											End Site
											{
												OFFSET	1	0	0
											}
										}
									}
								}
							}
						}
					}
					JOINT right_clavicle
					{
						OFFSET	43.2	22.4	-70.8
						CHANNELS 3  Xrotation Yrotation Zrotation
						JOINT right_shoulder
						{
							OFFSET	93.9	-5.79999	48.7
							CHANNELS 3  Xrotation Yrotation Zrotation
							JOINT right_elbow
							{
								OFFSET	291.4	-30.8	15.2
								CHANNELS 3  Xrotation Yrotation Zrotation
								JOINT right_lowarm_twist
								{
									OFFSET	110.7	-3.89999	13.6
									CHANNELS 3  Xrotation Yrotation Zrotation
									JOINT right_hand
									{
										OFFSET	110.7	-3.89999	13.6
										CHANNELS 3  Xrotation Yrotation Zrotation
										JOINT right_ee
										{
											OFFSET	80.8	-5.10001	12.1
											CHANNELS 3  Xrotation Yrotation Zrotation
											End Site
											{
												OFFSET	1	0	0
											}
										}
									}
								}
							}
						}
					}
				}
			}
		}
	}
	JOINT left_hip
	{
		OFFSET	-82.8	-127.5	0.300001
		CHANNELS 3  Xrotation Yrotation Zrotation
		JOINT left_knee
		{
			OFFSET	-28.2	-396.7	2.2
			CHANNELS 3  Xrotation Yrotation Zrotation
			JOINT left_ankle
			{
				OFFSET	-11.7	-411.3	35.4
				CHANNELS 3  Xrotation Yrotation Zrotation
				JOINT left_toes
				{
					OFFSET	0	-60	-88.6
					CHANNELS 3  Xrotation Yrotation Zrotation
					JOINT left_foot_ee
					{
						OFFSET	-22.5	-16.5	-42.2
						CHANNELS 3  Xrotation Yrotation Zrotation
						End Site
						{
							OFFSET	1	0	0
						}
					}
				}
			}
		}
	}
	JOINT right_hip
	{
		OFFSET	82.8	-127.5	0.300001
		CHANNELS 3  Xrotation Yrotation Zrotation
		JOINT right_knee
		{
			OFFSET	28.2	-396.7	2.2
			CHANNELS 3  Xrotation Yrotation Zrotation
			JOINT right_ankle
			{
				OFFSET	11.7	-411.3	35.4
				CHANNELS 3  Xrotation Yrotation Zrotation
				JOINT right_toes
				{
					OFFSET	0	-60	-88.6
					CHANNELS 3  Xrotation Yrotation Zrotation
					JOINT right_foot_ee
					{
						OFFSET	22.5	-16.5	-42.2
						CHANNELS 3  Xrotation Yrotation Zrotation
						End Site
						{
							OFFSET	1	0	0
						}
					}
				}
			}
		}
	}
}
MOTION
Frames: 16
Frame Time: 0.02
2924.28 762.573 -1516.82 -0.0483977 63.1137 1.39561 0.27738 0.548082 1.09608 0.277922 0.477229 1.12873 0.287789 0.235451 1.20263 0.286019 0.422417 1.15036 -11.1899 20.3628 -0.126087 -12.0258 38.6467 5.83118 -0.0 0.0 -0.0 1.40644 2.35867 2.9297 -3.42764 -18.8913 53.6277 0.889739 -23.7852 0.187381 11.8879 0.26482 -1.49277 -1.43262 9.1902 -5.4127 -0.0 0.0 -0.0 8.96968 18.6929 -17.2016 -23.2785 26.9224 -60.5067 1.57003 37.8711 -0.538659 -46.5463 3.6727 -4.49019 -4.38433 -20.6231 17.9338 0.0 0.0 0.0 -3.4399 -15.9331 0.338151 5.36498 -0.257808 -0.782416 4.0558 29.2152 -0.629022 5.41379 -0.0 -0.0 -0.0 0.0 -0.0 26.6715 26.658 -10.5242 -56.9796 1.88282 -8.18435 -7.93646 -12.0912 -1.1818 21.1306 -0.0 -0.0 0.0 0.0 0.0 
2904.08 759.798 -1512.42 0.206894 63.655 0.787755 0.190362 0.356952 1.10288 0.190994 0.286054 1.12336 0.197013 0.0475704 1.15823 0.195215 0.229882 1.13618 -10.5743 20.5706 0.300212 -11.2911 38.6864 6.04679 -0.0 0.0 -0.0 1.21753 4.90462 2.81558 -1.42288 -17.7343 52.4314 1.27223 -32.2187 0.367448 9.67278 0.239066 -1.21102 -1.6987 8.19266 -7.60456 -0.0 0.0 -0.0 9.06657 18.1856 -17.4498 -23.786 26.2505 -60.4825 1.29844 32.748 -0.381526 -46.3797 3.65375 -4.48029 -4.42462 -20.9442 17.9735 0.0 0.0 0.0 -5.4954 -13.5678 3.09455 6.35445 -0.313321 -0.923969 5.11888 28.9464 -0.79035 5.3768 -0.0 -0.0 -0.0 0.0 -0.0 28.8378 28.2613 -12.3713 -54.0525 1.59312 -7.83847 -8.17428 -12.6487 -1.21842 20.774 -0.0 -0.0 0.0 0.0 0.0 
2886.36 756.119 -1511.26 2.13175 64.3707 -1.52228 0.108263 0.225479 1.09447 0.108916 0.155382 1.1066 0.112279 -0.0784856 1.1147 0.110558 0.0985338 1.1131 -9.88573 20.4415 0.568669 -10.4474 38.1664 5.97765 -0.0 0.0 -0.0 0.990717 8.85252 2.78238 0.119002 -14.7058 51.5482 1.86104 -42.6689 0.726934 8.03578 0.213044 -1.00354 -1.89849 6.15801 -9.8827 -0.0 0.0 -0.0 9.15675 17.9347 -17.6655 -24.2889 25.8149 -61.0643 1.10451 28.6841 -0.282409 -46.1997 3.6333 -4.46953 -4.44952 -21.1676 17.9804 0.0 0.0 0.0 -6.67189 -10.0238 4.98708 7.60652 -0.387069 -1.10171 9.20562 29.1311 -1.40708 5.35371 -0.0 -0.0 -0.0 0.0 -0.0 29.2472 29.7521 -12.5849 -49.0869 1.14358 -7.2199 -10.3453 -13.1024 -1.54761 19.7284 -0.0 -0.0 0.0 0.0 0.0 
2869.75 757.349 -1509.38 2.77898 64.7661 -3.02791 0.25432 0.12144 1.3255 0.255297 0.0368569 1.33054 0.25655 -0.23779 1.30964 0.254157 -0.0279921 1.33075 -9.4389 20.3468 0.774896 -9.90382 37.7811 5.96758 -0.0 0.0 -0.0 1.00088 11.1461 3.01594 1.30503 -12.8032 51.0943 2.40584 -49.9932 1.12182 6.8911 0.19133 -0.858931 -2.0349 4.69973 -11.4903 -0.0 0.0 -0.0 9.22223 17.7681 -17.821 -24.6532 25.5109 -61.4738 0.97759 25.839 -0.224253 -46.0737 3.61901 -4.46196 -4.46686 -21.3276 17.9819 0.0 0.0 0.0 -8.47254 -7.53704 6.72488 7.7801 -0.3976 -1.12622 12.0694 29.2668 -1.83025 5.34167 -0.0 -0.0 -0.0 0.0 -0.0 30.6748 30.6066 -13.1554 -44.7594 0.796978 -6.65131 -11.8204 -13.4621 -1.77233 18.9977 -0.0 -0.0 0.0 0.0 0.0 
2854.53 758.932 -1507.42 2.13286 63.4362 -2.93241 0.353361 0.145931 1.46767 0.354558 0.0522539 1.47398 0.356366 -0.249721 1.45362 0.353417 -0.0170412 1.47481 -9.15655 20.3013 0.957835 -9.56237 37.5269 6.01919 -0.0 0.0 -0.0 0.887282 12.704 2.97136 2.2226 -11.4687 50.4145 2.89634 -55.1135 1.51162 6.16527 0.176065 -0.767469 -2.12987 3.68253 -12.6194 -0.0 0.0 -0.0 9.27833 17.6484 -17.9527 -24.9236 25.2983 -61.7725 0.89132 23.8228 -0.188019 -45.988 3.6093 -4.4568 -4.48065 -21.4871 17.961 0.0 0.0 0.0 -9.85441 -5.76868 7.55953 7.88431 -0.403958 -1.14093 14.0731 29.3591 -2.12132 5.32938 -0.0 -0.0 -0.0 0.0 -0.0 31.4055 31.4572 -12.508 -41.5794 0.570292 -6.21795 -12.8557 -13.7149 -1.93047 18.4948 -0.0 -0.0 0.0 0.0 0.0 
2838.82 755.965 -1507.43 0.224353 60.6542 -0.836803 0.387552 0.245175 1.49982 0.388791 0.149252 1.51238 0.393268 -0.1616 1.51111 0.39009 0.0790514 1.51767 -8.3576 20.9052 1.47327 -8.63186 38.1782 6.37094 -0.0 0.0 -0.0 0.843338 12.4643 2.87556 3.74194 -9.59019 49.4422 3.10318 -56.943 1.68318 6.73793 0.188205 -0.839613 -2.1954 2.96608 -13.4096 -0.0 0.0 -0.0 9.4961 18.3782 -18.39 -25.0731 25.194 -62.0762 0.834817 22.4671 -0.165809 -45.399 3.54277 -4.4209 -4.63832 -23.8304 17.3368 0.0 0.0 0.0 -9.93571 -4.47278 8.1527 7.2993 -0.368613 -1.05824 15.4361 28.7227 -2.30566 4.90918 -0.0 -0.0 -0.0 0.0 -0.0 28.39 32.3285 -11.3473 -27.1998 -0.141095 -4.13268 -13.1616 -11.3952 -1.97166 16.6382 -0.0 -0.0 0.0 0.0 0.0 
2826.2 762.623 -1505.06 -0.67875 58.6411 -0.636948 0.376878 0.343209 1.80135 0.378655 0.227908 1.81953 0.38671 -0.147283 1.82782 0.382077 0.143187 1.82815 -7.79602 21.3358 1.82947 -7.97127 38.6364 6.60691 -0.0 0.0 -0.0 0.845321 12.2921 2.86239 4.72989 -8.27165 48.812 3.25093 -58.1484 1.80786 7.12848 0.19607 -0.888883 -2.21275 2.53511 -13.7358 -0.0 0.0 -0.0 9.68874 18.7835 -18.7922 -25.091 25.0194 -62.443 0.791807 21.4169 -0.149737 -44.8438 3.4804 -4.38644 -4.73918 -25.5372 16.7544 0.0 0.0 0.0 -10.0846 -3.56575 8.77263 5.22583 -0.250197 -0.762434 16.2076 28.2875 -2.40715 4.5442 -0.0 -0.0 -0.0 0.0 -0.0 26.3122 32.8868 -10.6104 -16.2401 -0.321459 -2.46315 -13.366 -9.68081 -2.0008 15.3316 -0.0 -0.0 0.0 0.0 0.0 
2810.25 764.828 -1511.95 -0.452605 57.7519 -0.180121 0.280194 0.232547 1.82342 0.282036 0.116067 1.83452 0.286547 -0.263072 1.81927 0.281929 0.0274995 1.83798 -7.02227 20.5652 -0.932737 -7.0367 38.9744 3.39657 -0.0 0.0 -0.0 0.816124 12.0646 2.7917 5.87559 -7.49803 47.8883 3.37808 -59.1242 1.91644 7.29945 0.199407 -0.910468 -2.22801 2.50489 -13.8546 -0.0 0.0 -0.0 9.81484 18.7226 -19.0775 -25.0546 24.8264 -63.1635 0.760947 20.6539 -0.13866 -44.4384 3.43508 -4.3609 -4.79667 -26.7287 16.2522 0.0 0.0 0.0 -10.0787 -2.81964 9.34558 3.01599 -0.135897 -0.442771 16.9868 27.6088 -2.50452 4.23183 -0.0 -0.0 -0.0 0.0 -0.0 25.5763 32.5569 -11.9644 -8.31366 -0.251978 -1.2499 -16.7554 -8.48358 -2.51489 14.7053 -0.0 -0.0 0.0 0.0 0.0 
2792.5 760.307 -1511.8 0.399923 57.267 -0.998068 0.099422 0.223109 1.92351 0.101475 0.100282 1.93381 0.105822 -0.304961 1.91225 0.100719 0.000811298 1.9364 -7.43201 19.981 -2.18739 -7.50119 38.8179 2.17671 -0.0 0.0 -0.0 0.745803 11.9037 2.65814 7.16773 -7.01368 46.9 3.5105 -60.0844 2.03066 7.41016 0.201534 -0.92445 -2.23996 2.47668 -13.95 -0.0 0.0 -0.0 9.85337 18.6949 -19.1653 -25.2554 24.5055 -63.2786 0.713355 19.4622 -0.122336 -43.8101 3.36518 -4.32068 -4.79468 -27.5236 15.6774 0.0 0.0 0.0 -10.382 -2.33456 9.92467 1.38779 -0.0596307 -0.204606 17.0132 27.3048 -2.50332 3.68528 -0.0 -0.0 -0.0 0.0 -0.0 25.9948 32.1781 -13.3602 -2.43141 -0.0924472 -0.361662 -19.6231 -7.62466 -2.95015 14.2448 -0.0 -0.0 0.0 0.0 0.0 
2778.74 757.567 -1513.28 2.06421 56.379 -2.52149 -0.0236886 0.333274 2.04837 -0.021377 0.202284 2.06542 -0.0128222 -0.236855 2.06174 -0.0187424 0.0916587 2.07327 -7.30204 19.587 -3.14589 -7.31812 38.7316 1.07279 -0.0 0.0 -0.0 0.721714 11.8386 2.61127 7.93554 -6.66944 46.3134 3.61931 -60.8336 2.12533 7.37303 0.200824 -0.91976 -2.25157 2.61245 -13.9638 -0.0 0.0 -0.0 9.96923 19.4765 -19.3715 -25.1533 24.5245 -63.1434 0.675427 18.4996 -0.109999 -43.3944 3.31918 -4.29365 -4.78572 -27.9228 15.3433 0.0 0.0 0.0 -11.2068 -1.96363 9.39223 -0.112841 0.00463016 0.0166975 16.9802 27.2528 -2.49795 3.28763 -0.0 -0.0 -0.0 0.0 -0.0 26.2986 32.0783 -12.7055 1.6372 0.0708731 0.241224 -21.6813 -7.00546 -3.2622 13.7848 -0.0 -0.0 0.0 0.0 0.0 
2766.06 752.109 -1512.45 3.45985 56.4592 -4.1611 -0.100513 0.330781 2.10833 -0.098061 0.195983 2.12509 -0.0894143 -0.258418 2.11841 -0.0956686 0.0793105 2.13263 -7.23825 19.3238 -3.7453 -7.22103 38.6508 0.383423 -0.0 0.0 -0.0 0.733384 11.3971 2.58716 8.44164 -6.8252 45.9748 3.70783 -61.4182 2.20284 7.34681 0.200321 -0.91645 -2.24772 2.70603 -13.8922 -0.0 0.0 -0.0 10.0865 20.0207 -19.5953 -25.0321 24.5509 -63.0373 0.647753 17.7904 -0.101381 -43.1012 3.28685 -4.27439 -4.7766 -28.2128 15.0859 0.0 0.0 0.0 -12.5463 -1.80818 10.3571 -1.7303 0.0673674 0.256985 16.9047 27.1456 -2.48588 2.99797 -0.0 -0.0 -0.0 0.0 -0.0 26.804 31.9768 -12.461 4.53249 0.213006 0.662607 -23.1145 -6.58124 -3.47909 13.4635 -0.0 -0.0 0.0 0.0 0.0 
2748.68 740.418 -1511.64 4.26751 56.3313 -5.64272 -0.178451 0.307795 2.24601 -0.17566 0.164289 2.26103 -0.167606 -0.321283 2.24412 -0.174632 0.0370713 2.26669 -7.79938 19.281 -3.31882 -7.90446 38.3357 1.02847 -0.0 0.0 -0.0 0.795291 10.9059 2.64371 9.25245 -7.29279 45.8623 3.83383 -62.2141 2.31391 7.25106 0.198469 -0.904359 -2.23035 2.65565 -13.7979 -0.0 0.0 -0.0 10.1752 20.6254 -19.7492 -25.2722 24.5026 -62.8907 0.556701 15.4176 -0.0753566 -43.0563 3.28191 -4.27142 -4.74202 -28.1553 14.9305 0.0 0.0 0.0 -13.6868 -1.69777 11.7713 -2.88351 0.107938 0.429315 17.0535 27.0296 -2.50455 2.88714 -0.0 -0.0 -0.0 0.0 -0.0 27.7147 31.8916 -14.7524 6.62737 0.329064 0.962846 -23.847 -6.49459 -3.58947 13.237 -0.0 -0.0 0.0 0.0 0.0 
2727.75 734.054 -1512.14 4.26102 55.7332 -5.5434 -0.281922 0.31985 2.22631 -0.279182 0.177572 2.24214 -0.270595 -0.308273 2.22794 -0.27752 0.0473647 2.24866 -8.27666 19.2423 -2.97953 -8.48045 38.0817 1.54782 -0.0 0.0 -0.0 0.812534 10.677 2.65066 9.77676 -7.62048 45.8022 4.01712 -63.3012 2.47687 7.15452 0.196583 -0.89217 -2.21309 2.61661 -13.6988 -0.0 0.0 -0.0 10.4238 21.02 -20.2776 -25.4493 24.5616 -62.7962 0.495786 13.7988 -0.0599918 -43.053 3.28154 -4.2712 -4.7156 -28.0934 14.8243 0.0 0.0 0.0 -14.749 -1.61424 12.4083 -3.69717 0.134469 0.551369 17.2126 27.0055 -2.52601 2.83671 -0.0 -0.0 -0.0 0.0 -0.0 28.3302 31.8746 -15.3455 8.01772 0.412137 1.15973 -24.1526 -6.45816 -3.63546 13.0754 -0.0 -0.0 0.0 0.0 0.0 
2710.27 736.016 -1514.73 5.17027 55.2654 -6.60545 -0.461427 0.333511 2.25828 -0.45861 0.189173 2.27492 -0.449265 -0.311039 2.26149 -0.456399 0.0499275 2.28222 -8.20329 19.6439 -2.64846 -8.41076 38.6007 1.95005 -0.0 0.0 -0.0 0.907631 11.7194 2.91224 9.1219 -7.59038 46.2336 4.2383 -64.512 2.67552 7.09016 0.195313 -0.884046 -1.79881 2.71861 -10.8386 -0.0 0.0 -0.0 10.5595 20.5661 -20.618 -25.773 24.7036 -62.7502 0.51789 14.389 -0.0653746 -44.4458 3.4359 -4.36137 -4.62825 -27.1622 14.9755 0.0 0.0 0.0 -15.7075 -1.62143 13.0869 -5.22013 0.179457 0.78076 18.51 27.2506 -2.70706 2.97823 -0.0 -0.0 -0.0 0.0 -0.0 29.1278 32.384 -14.767 8.89021 0.466707 1.28225 -23.8077 -6.44288 -3.58367 9.8877 -0.0 -0.0 0.0 0.0 0.0 
2697.68 728.467 -1514.55 5.41245 55.7362 -7.41528 -0.469277 0.344595 2.29734 -0.466362 0.197751 2.31459 -0.456464 -0.311602 2.30204 -0.463855 0.0557717 2.32235 -8.21177 19.9326 -2.33573 -8.4345 38.9298 2.33762 -0.0 0.0 -0.0 0.970539 12.4479 3.08578 8.7081 -7.58443 46.5062 4.40598 -65.3633 2.82742 7.04456 0.194408 -0.878292 -1.49962 2.79954 -8.78908 -0.0 0.0 -0.0 10.6768 20.4128 -20.894 -25.9773 24.8613 -62.6683 0.534551 14.8317 -0.0695772 -45.4323 3.54653 -4.42295 -4.56619 -26.4884 15.0824 0.0 0.0 0.0 -16.1121 -1.54878 13.95 -6.254 0.206512 0.937114 19.5969 27.4057 -2.85654 3.07932 -0.0 -0.0 -0.0 0.0 -0.0 29.695 32.7399 -14.4904 9.5066 0.506385 1.36831 -23.5554 -6.42908 -3.54578 7.64761 -0.0 -0.0 0.0 0.0 0.0 
2685.41 722.324 -1515.55 4.87746 55.9501 -7.32019 -0.467663 0.429201 2.32563 -0.464698 0.280387 2.34821 -0.451152 -0.238 2.35288 -0.458852 0.136473 2.36094 -8.58331 20.1551 -1.60847 -8.89506 38.8997 3.26435 -0.0 0.0 -0.0 1.01318 12.7028 3.18009 8.88067 -7.70817 46.4964 4.71957 -66.8194 3.11413 6.93891 0.192294 -0.864963 -1.2636 2.85964 -7.1833 -0.0 0.0 -0.0 10.8188 20.766 -21.1879 -26.4411 25.2926 -61.9268 0.573289 15.8542 -0.0798273 -46.3132 3.64619 -4.47633 -4.52442 -25.5761 15.4626 0.0 0.0 0.0 -15.7758 -1.37471 14.1901 -7.00696 0.224438 1.05127 21.1106 27.4472 -3.05901 3.32892 -0.0 -0.0 -0.0 0.0 -0.0 30.2733 32.93 -14.3856 8.80921 0.461561 1.27091 -23.2865 -6.45096 -3.50526 6.07799 -0.0 -0.0 0.0 0.0 0.0 
